# xmcd CD database file
#
# Track frame offsets:
#	150
#	23335
#	38392
#	58120
#	75220
#	92735
#	115210
#	133277
#	152677
#	168365
#	192345
#
# Disc length: 2953 seconds
#
# Revision: 0
# Processed by: cddbd v1.5.1PL2 Copyright (c) Steve Scherf et al.
# Submitted via: CDex 1.70beta1
#
DISCID=7b0b870b
DTITLE=Gontiti - Strings with Gontiti
DYEAR=1998
DGENRE=Jazz
TTITLE0=Right Side of Sorrow
TTITLE1=塩と太陽
TTITLE2=Standard Exercise
TTITLE3=Railway
TTITLE4=水辺の人々
TTITLE5=Days of Wall
TTITLE6=Pirouette
TTITLE7=Bamboo Chair
TTITLE8=Foggy Valley
TTITLE9=Kiss on the Corner
TTITLE10=Closed Book
EXTD=YEAR: 1998
EXTT0=
EXTT1=
EXTT2=
EXTT3=
EXTT4=
EXTT5=
EXTT6=
EXTT7=
EXTT8=
EXTT9=
EXTT10=
PLAYORDER=
